<svg width="31" height="31" viewBox="0 0 31 31" fill="none" xmlns="http://www.w3.org/2000/svg">
<path d="M22.4375 22.2778V20.4966H24.0625V23.2466H22.3584C22.3938 23.0296 22.4183 22.8087 22.4297 22.5845L22.4375 22.2778ZM14.6875 22.2778V20.4966H16.3125V22.2778L16.3203 22.5845C16.3317 22.8088 16.3571 23.0295 16.3926 23.2466H14.6084C14.6438 23.0296 14.6683 22.8087 14.6797 22.5845L14.6875 22.2778ZM6.9375 20.4966H8.5625V22.2778L8.57031 22.5845C8.58167 22.8087 8.60617 23.0296 8.6416 23.2466H6.9375V20.4966ZM22.4375 12.5903C22.4375 12.2604 22.4099 11.9369 22.3584 11.6216H24.0625V14.3716H22.4375V12.5903ZM14.6875 12.5903C14.6875 12.2604 14.6599 11.9369 14.6084 11.6216H16.3916C16.3401 11.9369 16.3125 12.2604 16.3125 12.5903V14.3716H14.6875V12.5903ZM6.9375 11.6216H8.6416C8.59011 11.9369 8.5625 12.2604 8.5625 12.5903V14.3716H6.9375V11.6216Z" fill="#CB3526" stroke="#CB3526" stroke-width="10"/>
</svg>
