<svg width="134" height="84" viewBox="0 0 134 84" fill="none" xmlns="http://www.w3.org/2000/svg">
<line y1="83.5" x2="134" y2="83.5" stroke="#CB3526"/>
<path d="M61.6221 17.0425C61.6221 17.6121 61.3999 18.0907 60.9556 18.478C60.5226 18.854 60.0156 19.042 59.4346 19.042C58.8877 19.042 58.3978 18.8768 57.9648 18.5464C57.4863 18.1932 57.2471 17.7489 57.2471 17.2134C57.2471 16.6665 57.5832 16.0285 58.2554 15.2993C58.3921 15.1512 58.8991 14.6385 59.7764 13.7612C59.7764 14.1372 60.084 14.7012 60.6992 15.4531C61.3145 16.2051 61.6221 16.7349 61.6221 17.0425ZM60.4941 17.1792C60.4941 16.8944 60.1182 16.3589 59.3662 15.5728C58.7054 16.3019 58.375 16.7918 58.375 17.0425C58.375 17.6805 58.7168 17.9995 59.4004 17.9995C59.6396 17.9995 59.8789 17.9198 60.1182 17.7603C60.3688 17.6007 60.4941 17.4071 60.4941 17.1792ZM65.1255 34.5146C64.5786 34.8678 63.7298 35.4603 62.5791 36.292C61.3828 37.2148 60.7334 37.9611 60.6309 38.5308C60.4372 39.5903 60.0669 41.493 59.52 44.2388C58.9959 46.6313 58.0104 48.1922 56.5635 48.9214C55.8799 49.2632 54.6152 49.4341 52.7695 49.4341C49.7617 49.4341 48.0926 49.1948 47.7622 48.7163L47.8477 48.5796C48.5768 48.6935 49.2319 48.7505 49.813 48.7505C54.3019 48.7505 57.1844 46.4889 58.4604 41.9658C58.5516 41.5898 58.8136 40.5246 59.2466 38.77C59.5656 37.4826 59.9245 36.4515 60.3232 35.6768C60.8132 34.7197 61.5822 33.888 62.6304 33.1816C63.3937 32.6689 64.2254 32.0252 65.1255 31.2505V34.5146ZM70.4062 2.53809C69.9505 2.65202 68.9251 3.10775 67.3301 3.90527C65.849 4.65723 64.9888 5.0332 64.7495 5.0332C64.3621 5.0332 63.895 4.69141 63.3481 4.00781C63.2684 3.90527 62.881 3.39827 62.186 2.48682H63.1943C63.4678 2.48682 63.821 2.66911 64.2539 3.03369C64.6982 3.39827 64.9489 3.58057 65.0059 3.58057C65.5527 3.58057 65.8262 3.3584 65.8262 2.91406C65.8262 2.16211 65.4616 1.56396 64.7324 1.11963H65.7749C66.0597 1.11963 66.3958 1.36458 66.7832 1.85449C67.1706 2.33301 67.387 2.57227 67.4326 2.57227C67.9453 2.57227 68.2017 2.29883 68.2017 1.75195C68.2017 1.15951 67.9054 0.703776 67.313 0.384766C67.9054 0.339193 68.2301 0.316406 68.2871 0.316406C68.7314 0.316406 69.1188 0.606934 69.4492 1.18799C69.8822 1.93994 70.2012 2.38997 70.4062 2.53809ZM71.9272 3.87109C71.5399 3.99642 70.3208 4.5376 68.27 5.49463C66.5269 6.31494 65.3932 6.7251 64.8691 6.7251H63.1602C67.2731 4.82243 69.6201 3.87109 70.2012 3.87109H71.9272ZM71.0215 19.9712L70.8164 20.2617H70.6455V19.6294C70.6455 17.2482 70.8164 15.2658 71.1582 13.6821C69.5062 15.619 68.4352 16.821 67.9453 17.2881C66.7376 18.4388 65.3875 19.2876 63.895 19.8345C64.4305 20.1307 65.0685 21.2188 65.8091 23.0986C66.3446 24.4544 66.6807 25.5083 66.8174 26.2603C66.9427 26.9438 67.0054 28.0262 67.0054 29.5073C67.0054 31.5125 66.1965 33.2386 64.5786 34.6855V31.4727C65.6724 30.2422 66.2192 29.194 66.2192 28.3281C66.2192 27.6217 65.9743 26.7786 65.4844 25.7988C65.0059 24.819 64.4875 24.0898 63.9292 23.6113C63.8153 23.9076 63.7583 24.6139 63.7583 25.7305C63.7583 26.0723 63.6444 26.2887 63.4165 26.3799C63.1431 26.1292 63.0063 25.4229 63.0063 24.2607C63.0063 23.748 63.0633 23.0075 63.1772 22.0391C63.314 20.9225 63.4507 20.2275 63.5874 19.9541C62.6759 20.2617 62.0664 20.4611 61.7588 20.5522C61.0752 20.7459 60.4429 20.8656 59.8618 20.9111L59.7251 20.7744L59.7764 20.6035C61.4854 19.9655 63.0975 19.2648 64.6128 18.5015C65.98 17.8179 67.5352 16.4336 69.2783 14.3486C70.862 12.4688 71.9899 10.7028 72.6621 9.05078L72.8672 8.96533C73.0381 8.95394 73.1235 9.0166 73.1235 9.15332C73.1235 9.34701 72.9242 10.1331 72.5254 11.5117C72.3887 11.9902 72.1437 12.8504 71.7905 14.0923C71.6538 14.5822 71.3975 16.5418 71.0215 19.9712ZM81.395 11.188C81.0076 11.3133 79.7886 11.8545 77.7378 12.8115C75.9832 13.6318 74.8496 14.042 74.3369 14.042H72.6279C76.7409 12.1393 79.0879 11.188 79.6689 11.188H81.395ZM77.6182 22.1929C77.5042 22.5802 77.3903 22.9676 77.2764 23.355C77.0713 23.9246 76.8605 24.2949 76.644 24.4658L74.8496 23.4404C75.0319 22.8708 75.3281 22.0675 75.7383 21.0308C76.7295 21.3042 77.3561 21.6916 77.6182 22.1929ZM85.0864 34.4634C84.8586 34.6685 84.2376 35.0387 83.2236 35.5742C82.4033 36.0072 81.7767 36.2236 81.3438 36.2236C80.4893 36.2236 79.7886 35.7508 79.2417 34.8052C78.7974 34.0418 78.5467 33.1873 78.4897 32.2417H78.353L78.1992 32.3613C77.9714 32.6689 77.6353 33.626 77.1909 35.2324C76.5643 37.5111 75.8408 39.1346 75.0205 40.103C73.9154 41.4132 72.3374 42.0684 70.2866 42.0684C68.646 42.0684 67.1535 41.9146 65.8091 41.6069L65.7407 41.4531C65.7863 41.4189 65.8262 41.3848 65.8604 41.3506L65.9458 41.3164C67.4269 41.3164 68.5833 41.1911 69.415 40.9404C70.3607 40.6556 71.4032 40.0802 72.5425 39.2144C74.092 38.0409 75.0718 36.8844 75.4819 35.7451C75.7098 35.0387 76.137 33.7798 76.7637 31.9683C77.4587 29.9858 78.091 28.9092 78.6606 28.7383L78.8657 28.875C78.8999 28.9661 78.9512 29.5472 79.0195 30.6182C79.0651 31.3245 79.2816 31.9455 79.6689 32.481C80.1019 33.0962 80.6488 33.4038 81.3096 33.4038C82.54 33.4038 83.799 32.6746 85.0864 31.2163V34.4634ZM90.897 9.18799C90.5096 9.31331 89.2905 9.85449 87.2397 10.8115C85.4852 11.6318 84.3516 12.042 83.8389 12.042H82.1299C86.2428 10.1393 88.5898 9.18799 89.1709 9.18799H90.897ZM83.856 17.4932C83.7306 17.9033 83.611 18.3078 83.4971 18.7065C83.3262 19.1851 83.1211 19.5439 82.8818 19.7832C82.4717 19.5667 81.8678 19.2249 81.0703 18.7578C81.264 18.1882 81.5659 17.3792 81.9761 16.3311C82.9787 16.6045 83.6053 16.9919 83.856 17.4932ZM84.5737 34.6343V31.4214C85.9523 30.02 86.596 28.8237 86.5049 27.8325L86.2485 27.4907C86.2144 27.3654 86.1289 27.2799 85.9922 27.2344C85.3428 27.861 84.8016 28.1743 84.3687 28.1743C83.8674 28.1743 83.4572 27.9977 83.1382 27.6445C82.8192 27.2913 82.6597 26.8584 82.6597 26.3457C82.6597 25.5482 82.7565 24.762 82.9502 23.9873C83.235 22.8594 83.6509 22.2954 84.1978 22.2954C84.6535 22.2954 85.2516 22.6486 85.9922 23.355C86.7327 24.0614 87.16 24.6538 87.2739 25.1323C87.4106 25.6906 87.479 26.2773 87.479 26.8926C87.479 30.1852 86.5106 32.7658 84.5737 34.6343Z" fill="#E7E0D0"/>
<path d="M40.816 62.384L40.72 59.616H41.6L41.696 62.384H40.816ZM46.0859 69.6172C46.0859 70.4505 45.8021 71.2344 45.2344 71.9688C44.625 72.7604 43.9167 73.1562 43.1094 73.1562C42.1458 73.1562 41.3984 72.5625 40.8672 71.375C40.4557 70.4531 40.25 69.4401 40.25 68.3359C40.25 67.2161 40.5573 66.0964 41.1719 64.9766C41.3438 64.6693 41.5677 64.3125 41.8438 63.9062L43.875 61.6094C44.4323 60.9792 44.9193 60.1016 45.3359 58.9766L45.4141 58.9297L45.4531 59.0156L45.4219 59.1094C45.1354 59.9688 44.974 60.4427 44.9375 60.5312C44.75 60.9896 44.4974 61.4193 44.1797 61.8203C43.9245 62.0807 43.4531 62.5964 42.7656 63.3672C41.401 64.9818 40.7188 66.3828 40.7188 67.5703C40.7188 68.5286 40.8906 69.401 41.2344 70.1875C41.6771 71.2031 42.3099 71.7109 43.1328 71.7109C43.6068 71.7109 44.1146 71.5182 44.6562 71.1328C45.2396 70.7214 45.5312 70.2917 45.5312 69.8438C45.5312 69.6094 45.2292 69.4531 44.625 69.375C43.8854 69.276 43.4062 69.0547 43.1875 68.7109C43.0156 68.4401 42.9297 67.8984 42.9297 67.0859C42.9297 66.7161 42.9323 66.5104 42.9375 66.4688C42.9948 65.9948 43.1953 65.4375 43.5391 64.7969C43.9453 64.0417 44.3385 63.6641 44.7188 63.6641C45.1146 63.6641 45.4661 63.8073 45.7734 64.0938L45.8047 64.2734C45.8047 64.4297 45.7682 64.6328 45.6953 64.8828C45.612 65.1693 45.5208 65.3255 45.4219 65.3516L45.3984 65.3359C45.3255 65.2422 45.2552 65.1458 45.1875 65.0469C45.1094 64.9635 44.9844 64.9219 44.8125 64.9219C44.4062 64.9219 44.0469 65.1719 43.7344 65.6719C43.4531 66.1198 43.3125 66.5547 43.3125 66.9766C43.3125 67.4505 43.6823 67.7422 44.4219 67.8516L45.375 67.9922C45.849 68.0599 46.0859 68.6016 46.0859 69.6172ZM52.1172 68.5781C51.8672 68.7396 51.4792 69.0104 50.9531 69.3906C50.4062 69.8125 50.1094 70.1536 50.0625 70.4141C49.974 70.8984 49.8047 71.7682 49.5547 73.0234C49.3151 74.1172 48.8646 74.8307 48.2031 75.1641C47.8906 75.3203 47.3125 75.3984 46.4688 75.3984C45.0938 75.3984 44.3307 75.2891 44.1797 75.0703L44.2188 75.0078C44.5521 75.0599 44.8516 75.0859 45.1172 75.0859C47.1693 75.0859 48.487 74.0521 49.0703 71.9844C49.112 71.8125 49.2318 71.3255 49.4297 70.5234C49.5755 69.9349 49.7396 69.4635 49.9219 69.1094C50.1458 68.6719 50.4974 68.2917 50.9766 67.9688C51.3255 67.7344 51.7057 67.4401 52.1172 67.0859V68.5781ZM53.2188 52.1328C53.1979 52.2839 53.1979 52.7786 53.2188 53.6172C53.2344 54.3307 53.1953 54.776 53.1016 54.9531L52.7812 55.5312C52.75 53.8542 52.7891 52.9167 52.8984 52.7188L53.2188 52.1328ZM54.8125 61.9297L54.7188 62.0625H54.6406V61.7734C54.6406 60.6849 54.7188 59.7786 54.875 59.0547C54.1198 59.9401 53.6302 60.4896 53.4062 60.7031C52.8542 61.2292 52.237 61.6172 51.5547 61.8672C51.7995 62.0026 52.0911 62.5 52.4297 63.3594C52.6745 63.9792 52.8281 64.4609 52.8906 64.8047C52.9479 65.1172 52.9766 65.612 52.9766 66.2891C52.9766 67.2057 52.6068 67.9948 51.8672 68.6562V67.1875C52.3672 66.625 52.6172 66.1458 52.6172 65.75C52.6172 65.4271 52.5052 65.0417 52.2812 64.5938C52.0625 64.1458 51.8255 63.8125 51.5703 63.5938C51.5182 63.7292 51.4922 64.0521 51.4922 64.5625C51.4922 64.7188 51.4401 64.8177 51.3359 64.8594C51.2109 64.7448 51.1484 64.4219 51.1484 63.8906C51.1484 63.6562 51.1745 63.3177 51.2266 62.875C51.2891 62.3646 51.3516 62.0469 51.4141 61.9219C50.9974 62.0625 50.7188 62.1536 50.5781 62.1953C50.2656 62.2839 49.9766 62.3385 49.7109 62.3594L49.6484 62.2969L49.6719 62.2188C50.4531 61.9271 51.1901 61.6068 51.8828 61.2578C52.5078 60.9453 53.2188 60.3125 54.0156 59.3594C54.7396 58.5 55.2552 57.6927 55.5625 56.9375L55.6562 56.8984C55.7344 56.8932 55.7734 56.9219 55.7734 56.9844C55.7734 57.0729 55.6823 57.4323 55.5 58.0625C55.4375 58.2812 55.3255 58.6745 55.1641 59.2422C55.1016 59.4661 54.9844 60.362 54.8125 61.9297ZM59.0781 57.7031C58.8698 57.7552 58.401 57.9635 57.6719 58.3281C56.9948 58.6719 56.6016 58.8438 56.4922 58.8438C56.3151 58.8438 56.1016 58.6875 55.8516 58.375C55.8151 58.3281 55.638 58.0964 55.3203 57.6797H55.7812C55.9062 57.6797 56.0677 57.763 56.2656 57.9297C56.4688 58.0964 56.5833 58.1797 56.6094 58.1797C56.8594 58.1797 56.9844 58.0781 56.9844 57.875C56.9844 57.5312 56.8177 57.2578 56.4844 57.0547H56.9609C57.0911 57.0547 57.2448 57.1667 57.4219 57.3906C57.599 57.6094 57.6979 57.7188 57.7188 57.7188C57.9531 57.7188 58.0703 57.5938 58.0703 57.3438C58.0703 57.0729 57.9349 56.8646 57.6641 56.7188C57.9349 56.6979 58.0833 56.6875 58.1094 56.6875C58.3125 56.6875 58.4896 56.8203 58.6406 57.0859C58.8385 57.4297 58.9844 57.6354 59.0781 57.7031ZM59.7734 58.3125C59.5964 58.3698 59.0391 58.6172 58.1016 59.0547C57.3047 59.4297 56.7865 59.6172 56.5469 59.6172H55.7656C57.6458 58.7474 58.7188 58.3125 58.9844 58.3125H59.7734ZM57.8281 62.9453C57.776 63.1224 57.724 63.2995 57.6719 63.4766C57.5781 63.737 57.4818 63.9062 57.3828 63.9844L56.5625 63.5156C56.6458 63.2552 56.7812 62.888 56.9688 62.4141C57.4219 62.5391 57.7083 62.7161 57.8281 62.9453ZM61.2422 68.5547C61.138 68.6484 60.8542 68.8177 60.3906 69.0625C60.0156 69.2604 59.7292 69.3594 59.5312 69.3594C59.1406 69.3594 58.8203 69.1432 58.5703 68.7109C58.3672 68.362 58.2526 67.9714 58.2266 67.5391H58.1641L58.0938 67.5938C57.9896 67.7344 57.8359 68.1719 57.6328 68.9062C57.3464 69.9479 57.0156 70.6901 56.6406 71.1328C56.1354 71.7318 55.4141 72.0312 54.4766 72.0312C53.7266 72.0312 53.0443 71.9609 52.4297 71.8203L52.3984 71.75C52.4193 71.7344 52.4375 71.7188 52.4531 71.7031L52.4922 71.6875C53.1693 71.6875 53.6979 71.6302 54.0781 71.5156C54.5104 71.3854 54.987 71.1224 55.5078 70.7266C56.2161 70.1901 56.6641 69.6615 56.8516 69.1406C56.9557 68.8177 57.151 68.2422 57.4375 67.4141C57.7552 66.5078 58.0443 66.0156 58.3047 65.9375L58.3984 66C58.4141 66.0417 58.4375 66.3073 58.4688 66.7969C58.4896 67.1198 58.5885 67.4036 58.7656 67.6484C58.9635 67.9297 59.2135 68.0703 59.5156 68.0703C60.0781 68.0703 60.6536 67.737 61.2422 67.0703V68.5547ZM62.6172 64.7031C62.6172 66.4688 62.0703 67.7865 60.9766 68.6562V67.1875C61.8568 66.3021 62.2969 65.474 62.2969 64.7031C62.2969 64.1667 62.1016 63.526 61.7109 62.7812C61.5495 62.474 61.1979 61.9036 60.6562 61.0703C60.7031 61.7057 60.7708 62.6641 60.8594 63.9453L60.7969 64.0156L60.7188 63.9844C60.6146 63.8281 60.513 63.1354 60.4141 61.9062C60.3307 60.875 60.2891 60.138 60.2891 59.6953C60.2891 59.5391 60.3151 59.4219 60.3672 59.3438C60.987 59.6719 61.5312 60.4661 62 61.7266C62.4115 62.8359 62.6172 63.8281 62.6172 64.7031ZM66.1406 64.5078C66.1406 65.8411 66.0365 67.026 65.8281 68.0625C65.5156 69.6146 65.0026 70.6198 64.2891 71.0781C63.7578 71.4167 63.1719 71.6641 62.5312 71.8203C61.4948 72.0703 60.6641 72.1953 60.0391 72.1953C60.0234 72.1693 60.0104 72.1432 60 72.1172L60.0078 72.0547L60.0391 72.0234C60.2109 72.0234 60.7057 71.8516 61.5234 71.5078C62.5964 71.0547 63.388 70.5651 63.8984 70.0391C65.1849 68.7057 65.8281 67.2786 65.8281 65.7578C65.8281 64.6224 65.2083 62.8698 63.9688 60.5C63.9635 60.8854 63.9844 61.4193 64.0312 62.1016C64.0833 62.8568 64.1094 63.3932 64.1094 63.7109C64.1094 64.2422 64.0443 64.526 63.9141 64.5625L63.8203 64.4453C63.8307 64.2266 63.8359 64.0911 63.8359 64.0391C63.8359 63.5859 63.7891 62.9115 63.6953 62.0156C63.6016 61.1146 63.5547 60.4375 63.5547 59.9844C63.5547 59.4583 63.6484 58.9974 63.8359 58.6016C63.9036 58.6224 64.151 59.0651 64.5781 59.9297C64.9583 60.7005 65.2214 61.263 65.3672 61.6172C65.513 61.9714 65.6615 62.3828 65.8125 62.8516C66.0312 63.5286 66.1406 64.0807 66.1406 64.5078ZM78.8828 77.7422C78.7057 77.7995 78.1484 78.0469 77.2109 78.4844C76.4089 78.8594 75.8906 79.0469 75.6562 79.0469H74.875C76.7552 78.1771 77.8281 77.7422 78.0938 77.7422H78.8828ZM77.9531 60.8359L77.9766 61.4609C77.987 61.737 77.8542 61.9922 77.5781 62.2266C77.5 62.2943 77.2474 62.4609 76.8203 62.7266C76.7057 62.8203 76.5286 62.9323 76.2891 63.0625C76.2734 63 76.2656 62.9089 76.2656 62.7891C76.2656 62.6276 76.3203 62.2995 76.4297 61.8047C77.0286 61.4922 77.5365 61.1693 77.9531 60.8359ZM83.5625 68.5625C83.2448 68.8438 82.9271 68.9844 82.6094 68.9844C82.2031 68.9844 81.8594 68.7865 81.5781 68.3906C81.3229 68.026 81.1953 67.6328 81.1953 67.2109L81.1719 67.1797L81.0859 67.1875C81.0286 67.2292 80.4661 68.0104 79.3984 69.5312C78.0443 71.4635 76.5625 72.4297 74.9531 72.4297C73.8385 72.4297 72.8281 71.9245 71.9219 70.9141C71.0417 69.9349 70.6016 68.8802 70.6016 67.75V67.5156C70.6068 67.4688 70.6198 67.3646 70.6406 67.2031C70.7812 66.1354 71.2448 65.3203 72.0312 64.7578C72.75 64.2422 73.6667 63.9844 74.7812 63.9844C74.8698 63.9844 75.1224 63.9922 75.5391 64.0078C75.8099 64.0182 76.0651 64.0208 76.3047 64.0156C76.5755 64.0104 76.8255 63.9844 77.0547 63.9375C78.0234 63.7448 78.8307 63.4922 79.4766 63.1797L79.5 63.2734C79.2135 63.5026 78.6797 63.7578 77.8984 64.0391C77.2891 64.2578 76.6745 64.3672 76.0547 64.3672C73.7995 64.3672 72.2526 64.8646 71.4141 65.8594C71.0755 66.2604 70.9062 66.8125 70.9062 67.5156C70.9062 68.4167 71.2917 69.25 72.0625 70.0156C72.8385 70.7812 73.6797 71.1641 74.5859 71.1641C75.2318 71.1641 75.7396 71.0859 76.1094 70.9297C77.1562 70.487 78.1224 69.7031 79.0078 68.5781L81.0859 65.9375C81.1901 65.8073 81.2734 65.7318 81.3359 65.7109L81.3906 65.7422L81.4531 65.8594C81.4375 66.1667 81.4297 66.4661 81.4297 66.7578C81.4297 67.0234 81.5521 67.2448 81.7969 67.4219C82.0208 67.5833 82.2708 67.6641 82.5469 67.6641C82.9479 67.6641 83.2865 67.4714 83.5625 67.0859V68.5625ZM87.3047 59.0859C87.1276 59.1432 86.5703 59.3906 85.6328 59.8281C84.8307 60.2031 84.3125 60.3906 84.0781 60.3906H83.2969C85.1771 59.5208 86.25 59.0859 86.5156 59.0859H87.3047ZM87.2891 68.5547C86.8984 68.8464 86.4714 68.9922 86.0078 68.9922C85.3151 68.9922 84.7448 68.513 84.2969 67.5547C84.1094 67.7578 83.7839 68.1198 83.3203 68.6406V67.2031C83.388 67.151 83.474 67.0599 83.5781 66.9297C83.4583 66.8151 83.3151 66.7578 83.1484 66.7578L82.6562 66.8125L82.6406 66.5859V66.1875C82.6406 66.2552 82.6641 66.1016 82.7109 65.7266C82.737 65.513 82.7839 65.3724 82.8516 65.3047C82.9141 65.237 83.0495 65.1875 83.2578 65.1562C83.6432 65.099 83.9922 65.0703 84.3047 65.0703C85.0182 65.0703 85.375 65.2891 85.375 65.7266C85.375 66.0859 85.224 66.4635 84.9219 66.8594C85.0833 67.1823 85.2448 67.3984 85.4062 67.5078C85.5885 67.6328 85.8516 67.6953 86.1953 67.6953C86.5286 67.6953 86.8932 67.4792 87.2891 67.0469V68.5547ZM91.2266 57.0859C91.0495 57.1432 90.4922 57.3906 89.5547 57.8281C88.7526 58.2031 88.2344 58.3906 88 58.3906H87.2188C89.099 57.5208 90.1719 57.0859 90.4375 57.0859H91.2266ZM87.9375 61.9062C87.9115 62 87.8594 62.1771 87.7812 62.4375C87.6979 62.7135 87.6016 62.888 87.4922 62.9609L86.6719 62.4766C86.6823 62.4089 86.8229 62.0417 87.0938 61.375C87.3125 61.4583 87.474 61.526 87.5781 61.5781C87.7865 61.6875 87.9062 61.7969 87.9375 61.9062ZM91.4219 68.5547C91.0885 68.8828 90.5651 69.0469 89.8516 69.0469C89.2474 69.0469 88.5625 68.6875 87.7969 67.9688C87.599 68.1406 87.3385 68.375 87.0156 68.6719V67.1719C87.1146 67.1615 87.1641 67.1276 87.1641 67.0703C87.1641 67.0443 87.1276 66.9609 87.0547 66.8203C86.9818 66.6745 86.9453 66.5599 86.9453 66.4766C86.9453 65.7422 87.1458 65.1562 87.5469 64.7188C87.7865 64.4583 87.9818 64.3281 88.1328 64.3281C88.3776 64.3281 88.5703 64.4922 88.7109 64.8203C88.8203 65.0755 88.875 65.349 88.875 65.6406C88.875 66.1771 88.6927 66.737 88.3281 67.3203C88.5885 67.5807 89.0078 67.7109 89.5859 67.7109C90.4036 67.7109 91.0156 67.4896 91.4219 67.0469V68.5547ZM88.4688 65.8438C88.4688 65.7292 88.4115 65.6354 88.2969 65.5625C88.1875 65.4844 88.0729 65.4453 87.9531 65.4453C87.5156 65.6953 87.2969 65.9505 87.2969 66.2109C87.349 66.3464 87.4896 66.5104 87.7188 66.7031C87.8542 66.6198 88.0052 66.4896 88.1719 66.3125C88.3698 66.1042 88.4688 65.9479 88.4688 65.8438ZM94.0625 58.1641C93.8542 58.2161 93.3854 58.4245 92.6562 58.7891C91.974 59.1328 91.5807 59.3047 91.4766 59.3047C91.2995 59.3047 91.0859 59.1484 90.8359 58.8359C90.7995 58.7891 90.6224 58.5573 90.3047 58.1406H90.7656C90.8854 58.1406 91.0443 58.224 91.2422 58.3906C91.4453 58.5573 91.5625 58.6406 91.5938 58.6406C91.8438 58.6406 91.9688 58.5391 91.9688 58.3359C91.9688 57.9922 91.8021 57.7188 91.4688 57.5156H91.9453C92.0703 57.5156 92.2214 57.6276 92.3984 57.8516C92.5755 58.0703 92.6771 58.1797 92.7031 58.1797C92.9375 58.1797 93.0547 58.0547 93.0547 57.8047C93.0547 57.5339 92.9193 57.3255 92.6484 57.1797C92.9193 57.1589 93.0677 57.1484 93.0938 57.1484C93.2969 57.1484 93.474 57.2812 93.625 57.5469C93.8177 57.8906 93.9635 58.0964 94.0625 58.1641ZM93.7969 56.2734C93.6198 56.3307 93.0625 56.5781 92.125 57.0156C91.3229 57.3906 90.8047 57.5781 90.5703 57.5781H89.7891C91.6693 56.7083 92.7422 56.2734 93.0078 56.2734H93.7969ZM90.3359 61.4375C90.263 61.6927 90.2031 61.8802 90.1562 62C90.0677 62.2448 89.9818 62.4089 89.8984 62.4922C89.5286 62.2891 89.2552 62.1276 89.0781 62.0078C89.1875 61.7318 89.3203 61.3672 89.4766 60.9141C90.0078 61.0651 90.2943 61.2396 90.3359 61.4375ZM91.9531 66.6797C91.9531 67.5078 91.7057 68.1589 91.2109 68.6328V67.1641C91.4245 66.9661 91.5677 66.7135 91.6406 66.4062C91.5 65.7396 91.2552 65.276 90.9062 65.0156C90.8125 65.1406 90.7448 65.2839 90.7031 65.4453C90.6823 65.4505 90.6615 65.4531 90.6406 65.4531C90.5938 65.4531 90.5703 65.3646 90.5703 65.1875C90.5703 64.2656 90.6953 63.7005 90.9453 63.4922C91.3984 64.0391 91.6875 64.5391 91.8125 64.9922C91.9062 65.3307 91.9531 65.8932 91.9531 66.6797ZM98.6484 71.3906C98.0651 71.3906 97.612 71.0495 97.2891 70.3672C97.0339 69.8255 96.9062 69.2266 96.9062 68.5703C96.9062 66.9453 97.401 65.4089 98.3906 63.9609C98.6771 63.5495 99.1901 62.8073 99.9297 61.7344C100.044 61.5677 100.169 61.1641 100.305 60.5234L100.383 60.4766L100.461 60.5234C100.461 60.5547 100.456 60.5938 100.445 60.6406C100.341 61.1094 100.198 61.6224 100.016 62.1797C99.5 62.9245 98.862 63.8698 98.1016 65.0156C98.0651 65.0729 97.9505 65.3464 97.7578 65.8359C97.4193 66.7005 97.25 67.4401 97.25 68.0547C97.25 69.2891 97.7083 69.9714 98.625 70.1016C98.6615 70.1068 98.7188 70.1094 98.7969 70.1094C99.2552 70.1094 99.7135 69.8255 100.172 69.2578C100.615 68.7161 100.836 68.2083 100.836 67.7344C100.836 67.4896 100.729 67.2917 100.516 67.1406C100.328 67.0052 100.107 66.9375 99.8516 66.9375C99.4453 66.9375 99.1354 67.1641 98.9219 67.6172C99.3594 67.6224 99.6458 67.6927 99.7812 67.8281C99.8021 67.8906 99.8125 67.974 99.8125 68.0781C99.8125 68.3854 99.724 68.7266 99.5469 69.1016C99.2552 69.0443 98.9167 68.9557 98.5312 68.8359L98.4844 68.7188C98.4844 68.5521 98.5234 68.2188 98.6016 67.7188C98.7161 66.9844 98.8099 66.5156 98.8828 66.3125C99.0859 65.75 99.4245 65.4688 99.8984 65.4688C100.195 65.4688 100.477 65.6198 100.742 65.9219C101.081 66.3073 101.25 66.9245 101.25 67.7734L101.203 68.0312C101.031 68.9896 100.797 69.7266 100.5 70.2422C100.062 71.0078 99.4453 71.3906 98.6484 71.3906ZM104.992 77.7422C104.815 77.7995 104.258 78.0469 103.32 78.4844C102.518 78.8594 102 79.0469 101.766 79.0469H100.984C102.865 78.1771 103.938 77.7422 104.203 77.7422H104.992ZM104.531 64.5078C104.531 65.8411 104.427 67.026 104.219 68.0625C103.906 69.6146 103.393 70.6198 102.68 71.0781C102.148 71.4167 101.562 71.6641 100.922 71.8203C99.8854 72.0703 99.0547 72.1953 98.4297 72.1953C98.4141 72.1693 98.401 72.1432 98.3906 72.1172L98.3984 72.0547L98.4297 72.0234C98.6016 72.0234 99.0964 71.8516 99.9141 71.5078C100.987 71.0547 101.779 70.5651 102.289 70.0391C103.576 68.7057 104.219 67.2786 104.219 65.7578C104.219 64.6224 103.599 62.8698 102.359 60.5C102.354 60.8854 102.375 61.4193 102.422 62.1016C102.474 62.8568 102.5 63.3932 102.5 63.7109C102.5 64.2422 102.435 64.526 102.305 64.5625L102.211 64.4453C102.221 64.2266 102.227 64.0911 102.227 64.0391C102.227 63.5859 102.18 62.9115 102.086 62.0156C101.992 61.1146 101.945 60.4375 101.945 59.9844C101.945 59.4583 102.039 58.9974 102.227 58.6016C102.294 58.6224 102.542 59.0651 102.969 59.9297C103.349 60.7005 103.612 61.263 103.758 61.6172C103.904 61.9714 104.052 62.3828 104.203 62.8516C104.422 63.5286 104.531 64.0807 104.531 64.5078ZM103.977 73.6328C103.977 74.0182 103.721 74.3411 103.211 74.6016C102.789 74.8151 102.367 74.9219 101.945 74.9219C101.883 74.9219 101.852 74.8854 101.852 74.8125C101.992 74.7604 102.247 74.6667 102.617 74.5312C102.987 74.401 103.245 74.2708 103.391 74.1406L103.43 74.0625L103.391 74.0078L103.195 74.0234L102.977 74.0078C102.826 73.8516 102.75 73.6953 102.75 73.5391C102.75 73.2995 102.828 73.0391 102.984 72.7578C103.146 72.4818 103.336 72.3099 103.555 72.2422L103.742 72.2891C103.742 72.3672 103.721 72.4974 103.68 72.6797C103.628 72.8776 103.583 72.9922 103.547 73.0234L103.391 72.9922C103.312 72.9922 103.255 73.0104 103.219 73.0469L103.195 73.1406C103.195 73.2031 103.234 73.2578 103.312 73.3047L103.625 73.2969L103.805 73.3047C103.919 73.4193 103.977 73.5286 103.977 73.6328Z" fill="#E7E0D0"/>
</svg>
