<svg width="134" height="85" viewBox="0 0 134 85" fill="none" xmlns="http://www.w3.org/2000/svg">
<path d="M57.6221 17.0425C57.6221 17.6121 57.3999 18.0907 56.9556 18.478C56.5226 18.854 56.0156 19.042 55.4346 19.042C54.8877 19.042 54.3978 18.8768 53.9648 18.5464C53.4863 18.1932 53.2471 17.7489 53.2471 17.2134C53.2471 16.6665 53.5832 16.0285 54.2554 15.2993C54.3921 15.1512 54.8991 14.6385 55.7764 13.7612C55.7764 14.1372 56.084 14.7012 56.6992 15.4531C57.3145 16.2051 57.6221 16.7349 57.6221 17.0425ZM56.4941 17.1792C56.4941 16.8944 56.1182 16.3589 55.3662 15.5728C54.7054 16.3019 54.375 16.7918 54.375 17.0425C54.375 17.6805 54.7168 17.9995 55.4004 17.9995C55.6396 17.9995 55.8789 17.9198 56.1182 17.7603C56.3688 17.6007 56.4941 17.4071 56.4941 17.1792ZM61.1255 34.5146C60.5786 34.8678 59.7298 35.4603 58.5791 36.292C57.3828 37.2148 56.7334 37.9611 56.6309 38.5308C56.4372 39.5903 56.0669 41.493 55.52 44.2388C54.9959 46.6313 54.0104 48.1922 52.5635 48.9214C51.8799 49.2632 50.6152 49.4341 48.7695 49.4341C45.7617 49.4341 44.0926 49.1948 43.7622 48.7163L43.8477 48.5796C44.5768 48.6935 45.2319 48.7505 45.813 48.7505C50.3019 48.7505 53.1844 46.4889 54.4604 41.9658C54.5516 41.5898 54.8136 40.5246 55.2466 38.77C55.5656 37.4826 55.9245 36.4515 56.3232 35.6768C56.8132 34.7197 57.5822 33.888 58.6304 33.1816C59.3937 32.6689 60.2254 32.0252 61.1255 31.2505V34.5146ZM66.4062 2.53809C65.9505 2.65202 64.9251 3.10775 63.3301 3.90527C61.849 4.65723 60.9888 5.0332 60.7495 5.0332C60.3621 5.0332 59.895 4.69141 59.3481 4.00781C59.2684 3.90527 58.881 3.39827 58.186 2.48682H59.1943C59.4678 2.48682 59.821 2.66911 60.2539 3.03369C60.6982 3.39827 60.9489 3.58057 61.0059 3.58057C61.5527 3.58057 61.8262 3.3584 61.8262 2.91406C61.8262 2.16211 61.4616 1.56396 60.7324 1.11963H61.7749C62.0597 1.11963 62.3958 1.36458 62.7832 1.85449C63.1706 2.33301 63.387 2.57227 63.4326 2.57227C63.9453 2.57227 64.2017 2.29883 64.2017 1.75195C64.2017 1.15951 63.9054 0.703776 63.313 0.384766C63.9054 0.339193 64.2301 0.316406 64.2871 0.316406C64.7314 0.316406 65.1188 0.606934 65.4492 1.18799C65.8822 1.93994 66.2012 2.38997 66.4062 2.53809ZM67.9272 3.87109C67.5399 3.99642 66.3208 4.5376 64.27 5.49463C62.5269 6.31494 61.3932 6.7251 60.8691 6.7251H59.1602C63.2731 4.82243 65.6201 3.87109 66.2012 3.87109H67.9272ZM67.0215 19.9712L66.8164 20.2617H66.6455V19.6294C66.6455 17.2482 66.8164 15.2658 67.1582 13.6821C65.5062 15.619 64.4352 16.821 63.9453 17.2881C62.7376 18.4388 61.3875 19.2876 59.895 19.8345C60.4305 20.1307 61.0685 21.2188 61.8091 23.0986C62.3446 24.4544 62.6807 25.5083 62.8174 26.2603C62.9427 26.9438 63.0054 28.0262 63.0054 29.5073C63.0054 31.5125 62.1965 33.2386 60.5786 34.6855V31.4727C61.6724 30.2422 62.2192 29.194 62.2192 28.3281C62.2192 27.6217 61.9743 26.7786 61.4844 25.7988C61.0059 24.819 60.4875 24.0898 59.9292 23.6113C59.8153 23.9076 59.7583 24.6139 59.7583 25.7305C59.7583 26.0723 59.6444 26.2887 59.4165 26.3799C59.1431 26.1292 59.0063 25.4229 59.0063 24.2607C59.0063 23.748 59.0633 23.0075 59.1772 22.0391C59.314 20.9225 59.4507 20.2275 59.5874 19.9541C58.6759 20.2617 58.0664 20.4611 57.7588 20.5522C57.0752 20.7459 56.4429 20.8656 55.8618 20.9111L55.7251 20.7744L55.7764 20.6035C57.4854 19.9655 59.0975 19.2648 60.6128 18.5015C61.98 17.8179 63.5352 16.4336 65.2783 14.3486C66.862 12.4688 67.9899 10.7028 68.6621 9.05078L68.8672 8.96533C69.0381 8.95394 69.1235 9.0166 69.1235 9.15332C69.1235 9.34701 68.9242 10.1331 68.5254 11.5117C68.3887 11.9902 68.1437 12.8504 67.7905 14.0923C67.6538 14.5822 67.3975 16.5418 67.0215 19.9712ZM77.395 11.188C77.0076 11.3133 75.7886 11.8545 73.7378 12.8115C71.9832 13.6318 70.8496 14.042 70.3369 14.042H68.6279C72.7409 12.1393 75.0879 11.188 75.6689 11.188H77.395ZM73.6182 22.1929C73.5042 22.5802 73.3903 22.9676 73.2764 23.355C73.0713 23.9246 72.8605 24.2949 72.644 24.4658L70.8496 23.4404C71.0319 22.8708 71.3281 22.0675 71.7383 21.0308C72.7295 21.3042 73.3561 21.6916 73.6182 22.1929ZM81.0864 34.4634C80.8586 34.6685 80.2376 35.0387 79.2236 35.5742C78.4033 36.0072 77.7767 36.2236 77.3438 36.2236C76.4893 36.2236 75.7886 35.7508 75.2417 34.8052C74.7974 34.0418 74.5467 33.1873 74.4897 32.2417H74.353L74.1992 32.3613C73.9714 32.6689 73.6353 33.626 73.1909 35.2324C72.5643 37.5111 71.8408 39.1346 71.0205 40.103C69.9154 41.4132 68.3374 42.0684 66.2866 42.0684C64.646 42.0684 63.1535 41.9146 61.8091 41.6069L61.7407 41.4531C61.7863 41.4189 61.8262 41.3848 61.8604 41.3506L61.9458 41.3164C63.4269 41.3164 64.5833 41.1911 65.415 40.9404C66.3607 40.6556 67.4032 40.0802 68.5425 39.2144C70.092 38.0409 71.0718 36.8844 71.4819 35.7451C71.7098 35.0387 72.137 33.7798 72.7637 31.9683C73.4587 29.9858 74.091 28.9092 74.6606 28.7383L74.8657 28.875C74.8999 28.9661 74.9512 29.5472 75.0195 30.6182C75.0651 31.3245 75.2816 31.9455 75.6689 32.481C76.1019 33.0962 76.6488 33.4038 77.3096 33.4038C78.54 33.4038 79.799 32.6746 81.0864 31.2163V34.4634ZM86.897 9.18799C86.5096 9.31331 85.2905 9.85449 83.2397 10.8115C81.4852 11.6318 80.3516 12.042 79.8389 12.042H78.1299C82.2428 10.1393 84.5898 9.18799 85.1709 9.18799H86.897ZM79.856 17.4932C79.7306 17.9033 79.611 18.3078 79.4971 18.7065C79.3262 19.1851 79.1211 19.5439 78.8818 19.7832C78.4717 19.5667 77.8678 19.2249 77.0703 18.7578C77.264 18.1882 77.5659 17.3792 77.9761 16.3311C78.9787 16.6045 79.6053 16.9919 79.856 17.4932ZM80.5737 34.6343V31.4214C81.9523 30.02 82.596 28.8237 82.5049 27.8325L82.2485 27.4907C82.2144 27.3654 82.1289 27.2799 81.9922 27.2344C81.3428 27.861 80.8016 28.1743 80.3687 28.1743C79.8674 28.1743 79.4572 27.9977 79.1382 27.6445C78.8192 27.2913 78.6597 26.8584 78.6597 26.3457C78.6597 25.5482 78.7565 24.762 78.9502 23.9873C79.235 22.8594 79.6509 22.2954 80.1978 22.2954C80.6535 22.2954 81.2516 22.6486 81.9922 23.355C82.7327 24.0614 83.16 24.6538 83.2739 25.1323C83.4106 25.6906 83.479 26.2773 83.479 26.8926C83.479 30.1852 82.5106 32.7658 80.5737 34.6343Z" fill="#162F43"/>
<path d="M36.816 62.384L36.72 59.616H37.6L37.696 62.384H36.816ZM42.0859 69.6172C42.0859 70.4505 41.8021 71.2344 41.2344 71.9688C40.625 72.7604 39.9167 73.1562 39.1094 73.1562C38.1458 73.1562 37.3984 72.5625 36.8672 71.375C36.4557 70.4531 36.25 69.4401 36.25 68.3359C36.25 67.2161 36.5573 66.0964 37.1719 64.9766C37.3438 64.6693 37.5677 64.3125 37.8438 63.9062L39.875 61.6094C40.4323 60.9792 40.9193 60.1016 41.3359 58.9766L41.4141 58.9297L41.4531 59.0156L41.4219 59.1094C41.1354 59.9688 40.974 60.4427 40.9375 60.5312C40.75 60.9896 40.4974 61.4193 40.1797 61.8203C39.9245 62.0807 39.4531 62.5964 38.7656 63.3672C37.401 64.9818 36.7188 66.3828 36.7188 67.5703C36.7188 68.5286 36.8906 69.401 37.2344 70.1875C37.6771 71.2031 38.3099 71.7109 39.1328 71.7109C39.6068 71.7109 40.1146 71.5182 40.6562 71.1328C41.2396 70.7214 41.5312 70.2917 41.5312 69.8438C41.5312 69.6094 41.2292 69.4531 40.625 69.375C39.8854 69.276 39.4062 69.0547 39.1875 68.7109C39.0156 68.4401 38.9297 67.8984 38.9297 67.0859C38.9297 66.7161 38.9323 66.5104 38.9375 66.4688C38.9948 65.9948 39.1953 65.4375 39.5391 64.7969C39.9453 64.0417 40.3385 63.6641 40.7188 63.6641C41.1146 63.6641 41.4661 63.8073 41.7734 64.0938L41.8047 64.2734C41.8047 64.4297 41.7682 64.6328 41.6953 64.8828C41.612 65.1693 41.5208 65.3255 41.4219 65.3516L41.3984 65.3359C41.3255 65.2422 41.2552 65.1458 41.1875 65.0469C41.1094 64.9635 40.9844 64.9219 40.8125 64.9219C40.4062 64.9219 40.0469 65.1719 39.7344 65.6719C39.4531 66.1198 39.3125 66.5547 39.3125 66.9766C39.3125 67.4505 39.6823 67.7422 40.4219 67.8516L41.375 67.9922C41.849 68.0599 42.0859 68.6016 42.0859 69.6172ZM48.1172 68.5781C47.8672 68.7396 47.4792 69.0104 46.9531 69.3906C46.4062 69.8125 46.1094 70.1536 46.0625 70.4141C45.974 70.8984 45.8047 71.7682 45.5547 73.0234C45.3151 74.1172 44.8646 74.8307 44.2031 75.1641C43.8906 75.3203 43.3125 75.3984 42.4688 75.3984C41.0938 75.3984 40.3307 75.2891 40.1797 75.0703L40.2188 75.0078C40.5521 75.0599 40.8516 75.0859 41.1172 75.0859C43.1693 75.0859 44.487 74.0521 45.0703 71.9844C45.112 71.8125 45.2318 71.3255 45.4297 70.5234C45.5755 69.9349 45.7396 69.4635 45.9219 69.1094C46.1458 68.6719 46.4974 68.2917 46.9766 67.9688C47.3255 67.7344 47.7057 67.4401 48.1172 67.0859V68.5781ZM49.2188 52.1328C49.1979 52.2839 49.1979 52.7786 49.2188 53.6172C49.2344 54.3307 49.1953 54.776 49.1016 54.9531L48.7812 55.5312C48.75 53.8542 48.7891 52.9167 48.8984 52.7188L49.2188 52.1328ZM50.8125 61.9297L50.7188 62.0625H50.6406V61.7734C50.6406 60.6849 50.7188 59.7786 50.875 59.0547C50.1198 59.9401 49.6302 60.4896 49.4062 60.7031C48.8542 61.2292 48.237 61.6172 47.5547 61.8672C47.7995 62.0026 48.0911 62.5 48.4297 63.3594C48.6745 63.9792 48.8281 64.4609 48.8906 64.8047C48.9479 65.1172 48.9766 65.612 48.9766 66.2891C48.9766 67.2057 48.6068 67.9948 47.8672 68.6562V67.1875C48.3672 66.625 48.6172 66.1458 48.6172 65.75C48.6172 65.4271 48.5052 65.0417 48.2812 64.5938C48.0625 64.1458 47.8255 63.8125 47.5703 63.5938C47.5182 63.7292 47.4922 64.0521 47.4922 64.5625C47.4922 64.7188 47.4401 64.8177 47.3359 64.8594C47.2109 64.7448 47.1484 64.4219 47.1484 63.8906C47.1484 63.6562 47.1745 63.3177 47.2266 62.875C47.2891 62.3646 47.3516 62.0469 47.4141 61.9219C46.9974 62.0625 46.7188 62.1536 46.5781 62.1953C46.2656 62.2839 45.9766 62.3385 45.7109 62.3594L45.6484 62.2969L45.6719 62.2188C46.4531 61.9271 47.1901 61.6068 47.8828 61.2578C48.5078 60.9453 49.2188 60.3125 50.0156 59.3594C50.7396 58.5 51.2552 57.6927 51.5625 56.9375L51.6562 56.8984C51.7344 56.8932 51.7734 56.9219 51.7734 56.9844C51.7734 57.0729 51.6823 57.4323 51.5 58.0625C51.4375 58.2812 51.3255 58.6745 51.1641 59.2422C51.1016 59.4661 50.9844 60.362 50.8125 61.9297ZM55.0781 57.7031C54.8698 57.7552 54.401 57.9635 53.6719 58.3281C52.9948 58.6719 52.6016 58.8438 52.4922 58.8438C52.3151 58.8438 52.1016 58.6875 51.8516 58.375C51.8151 58.3281 51.638 58.0964 51.3203 57.6797H51.7812C51.9062 57.6797 52.0677 57.763 52.2656 57.9297C52.4688 58.0964 52.5833 58.1797 52.6094 58.1797C52.8594 58.1797 52.9844 58.0781 52.9844 57.875C52.9844 57.5312 52.8177 57.2578 52.4844 57.0547H52.9609C53.0911 57.0547 53.2448 57.1667 53.4219 57.3906C53.599 57.6094 53.6979 57.7188 53.7188 57.7188C53.9531 57.7188 54.0703 57.5938 54.0703 57.3438C54.0703 57.0729 53.9349 56.8646 53.6641 56.7188C53.9349 56.6979 54.0833 56.6875 54.1094 56.6875C54.3125 56.6875 54.4896 56.8203 54.6406 57.0859C54.8385 57.4297 54.9844 57.6354 55.0781 57.7031ZM55.7734 58.3125C55.5964 58.3698 55.0391 58.6172 54.1016 59.0547C53.3047 59.4297 52.7865 59.6172 52.5469 59.6172H51.7656C53.6458 58.7474 54.7188 58.3125 54.9844 58.3125H55.7734ZM53.8281 62.9453C53.776 63.1224 53.724 63.2995 53.6719 63.4766C53.5781 63.737 53.4818 63.9062 53.3828 63.9844L52.5625 63.5156C52.6458 63.2552 52.7812 62.888 52.9688 62.4141C53.4219 62.5391 53.7083 62.7161 53.8281 62.9453ZM57.2422 68.5547C57.138 68.6484 56.8542 68.8177 56.3906 69.0625C56.0156 69.2604 55.7292 69.3594 55.5312 69.3594C55.1406 69.3594 54.8203 69.1432 54.5703 68.7109C54.3672 68.362 54.2526 67.9714 54.2266 67.5391H54.1641L54.0938 67.5938C53.9896 67.7344 53.8359 68.1719 53.6328 68.9062C53.3464 69.9479 53.0156 70.6901 52.6406 71.1328C52.1354 71.7318 51.4141 72.0312 50.4766 72.0312C49.7266 72.0312 49.0443 71.9609 48.4297 71.8203L48.3984 71.75C48.4193 71.7344 48.4375 71.7188 48.4531 71.7031L48.4922 71.6875C49.1693 71.6875 49.6979 71.6302 50.0781 71.5156C50.5104 71.3854 50.987 71.1224 51.5078 70.7266C52.2161 70.1901 52.6641 69.6615 52.8516 69.1406C52.9557 68.8177 53.151 68.2422 53.4375 67.4141C53.7552 66.5078 54.0443 66.0156 54.3047 65.9375L54.3984 66C54.4141 66.0417 54.4375 66.3073 54.4688 66.7969C54.4896 67.1198 54.5885 67.4036 54.7656 67.6484C54.9635 67.9297 55.2135 68.0703 55.5156 68.0703C56.0781 68.0703 56.6536 67.737 57.2422 67.0703V68.5547ZM58.6172 64.7031C58.6172 66.4688 58.0703 67.7865 56.9766 68.6562V67.1875C57.8568 66.3021 58.2969 65.474 58.2969 64.7031C58.2969 64.1667 58.1016 63.526 57.7109 62.7812C57.5495 62.474 57.1979 61.9036 56.6562 61.0703C56.7031 61.7057 56.7708 62.6641 56.8594 63.9453L56.7969 64.0156L56.7188 63.9844C56.6146 63.8281 56.513 63.1354 56.4141 61.9062C56.3307 60.875 56.2891 60.138 56.2891 59.6953C56.2891 59.5391 56.3151 59.4219 56.3672 59.3438C56.987 59.6719 57.5312 60.4661 58 61.7266C58.4115 62.8359 58.6172 63.8281 58.6172 64.7031ZM62.1406 64.5078C62.1406 65.8411 62.0365 67.026 61.8281 68.0625C61.5156 69.6146 61.0026 70.6198 60.2891 71.0781C59.7578 71.4167 59.1719 71.6641 58.5312 71.8203C57.4948 72.0703 56.6641 72.1953 56.0391 72.1953C56.0234 72.1693 56.0104 72.1432 56 72.1172L56.0078 72.0547L56.0391 72.0234C56.2109 72.0234 56.7057 71.8516 57.5234 71.5078C58.5964 71.0547 59.388 70.5651 59.8984 70.0391C61.1849 68.7057 61.8281 67.2786 61.8281 65.7578C61.8281 64.6224 61.2083 62.8698 59.9688 60.5C59.9635 60.8854 59.9844 61.4193 60.0312 62.1016C60.0833 62.8568 60.1094 63.3932 60.1094 63.7109C60.1094 64.2422 60.0443 64.526 59.9141 64.5625L59.8203 64.4453C59.8307 64.2266 59.8359 64.0911 59.8359 64.0391C59.8359 63.5859 59.7891 62.9115 59.6953 62.0156C59.6016 61.1146 59.5547 60.4375 59.5547 59.9844C59.5547 59.4583 59.6484 58.9974 59.8359 58.6016C59.9036 58.6224 60.151 59.0651 60.5781 59.9297C60.9583 60.7005 61.2214 61.263 61.3672 61.6172C61.513 61.9714 61.6615 62.3828 61.8125 62.8516C62.0312 63.5286 62.1406 64.0807 62.1406 64.5078ZM74.8828 77.7422C74.7057 77.7995 74.1484 78.0469 73.2109 78.4844C72.4089 78.8594 71.8906 79.0469 71.6562 79.0469H70.875C72.7552 78.1771 73.8281 77.7422 74.0938 77.7422H74.8828ZM73.9531 60.8359L73.9766 61.4609C73.987 61.737 73.8542 61.9922 73.5781 62.2266C73.5 62.2943 73.2474 62.4609 72.8203 62.7266C72.7057 62.8203 72.5286 62.9323 72.2891 63.0625C72.2734 63 72.2656 62.9089 72.2656 62.7891C72.2656 62.6276 72.3203 62.2995 72.4297 61.8047C73.0286 61.4922 73.5365 61.1693 73.9531 60.8359ZM79.5625 68.5625C79.2448 68.8438 78.9271 68.9844 78.6094 68.9844C78.2031 68.9844 77.8594 68.7865 77.5781 68.3906C77.3229 68.026 77.1953 67.6328 77.1953 67.2109L77.1719 67.1797L77.0859 67.1875C77.0286 67.2292 76.4661 68.0104 75.3984 69.5312C74.0443 71.4635 72.5625 72.4297 70.9531 72.4297C69.8385 72.4297 68.8281 71.9245 67.9219 70.9141C67.0417 69.9349 66.6016 68.8802 66.6016 67.75V67.5156C66.6068 67.4688 66.6198 67.3646 66.6406 67.2031C66.7812 66.1354 67.2448 65.3203 68.0312 64.7578C68.75 64.2422 69.6667 63.9844 70.7812 63.9844C70.8698 63.9844 71.1224 63.9922 71.5391 64.0078C71.8099 64.0182 72.0651 64.0208 72.3047 64.0156C72.5755 64.0104 72.8255 63.9844 73.0547 63.9375C74.0234 63.7448 74.8307 63.4922 75.4766 63.1797L75.5 63.2734C75.2135 63.5026 74.6797 63.7578 73.8984 64.0391C73.2891 64.2578 72.6745 64.3672 72.0547 64.3672C69.7995 64.3672 68.2526 64.8646 67.4141 65.8594C67.0755 66.2604 66.9062 66.8125 66.9062 67.5156C66.9062 68.4167 67.2917 69.25 68.0625 70.0156C68.8385 70.7812 69.6797 71.1641 70.5859 71.1641C71.2318 71.1641 71.7396 71.0859 72.1094 70.9297C73.1562 70.487 74.1224 69.7031 75.0078 68.5781L77.0859 65.9375C77.1901 65.8073 77.2734 65.7318 77.3359 65.7109L77.3906 65.7422L77.4531 65.8594C77.4375 66.1667 77.4297 66.4661 77.4297 66.7578C77.4297 67.0234 77.5521 67.2448 77.7969 67.4219C78.0208 67.5833 78.2708 67.6641 78.5469 67.6641C78.9479 67.6641 79.2865 67.4714 79.5625 67.0859V68.5625ZM83.3047 59.0859C83.1276 59.1432 82.5703 59.3906 81.6328 59.8281C80.8307 60.2031 80.3125 60.3906 80.0781 60.3906H79.2969C81.1771 59.5208 82.25 59.0859 82.5156 59.0859H83.3047ZM83.2891 68.5547C82.8984 68.8464 82.4714 68.9922 82.0078 68.9922C81.3151 68.9922 80.7448 68.513 80.2969 67.5547C80.1094 67.7578 79.7839 68.1198 79.3203 68.6406V67.2031C79.388 67.151 79.474 67.0599 79.5781 66.9297C79.4583 66.8151 79.3151 66.7578 79.1484 66.7578L78.6562 66.8125L78.6406 66.5859V66.1875C78.6406 66.2552 78.6641 66.1016 78.7109 65.7266C78.737 65.513 78.7839 65.3724 78.8516 65.3047C78.9141 65.237 79.0495 65.1875 79.2578 65.1562C79.6432 65.099 79.9922 65.0703 80.3047 65.0703C81.0182 65.0703 81.375 65.2891 81.375 65.7266C81.375 66.0859 81.224 66.4635 80.9219 66.8594C81.0833 67.1823 81.2448 67.3984 81.4062 67.5078C81.5885 67.6328 81.8516 67.6953 82.1953 67.6953C82.5286 67.6953 82.8932 67.4792 83.2891 67.0469V68.5547ZM87.2266 57.0859C87.0495 57.1432 86.4922 57.3906 85.5547 57.8281C84.7526 58.2031 84.2344 58.3906 84 58.3906H83.2188C85.099 57.5208 86.1719 57.0859 86.4375 57.0859H87.2266ZM83.9375 61.9062C83.9115 62 83.8594 62.1771 83.7812 62.4375C83.6979 62.7135 83.6016 62.888 83.4922 62.9609L82.6719 62.4766C82.6823 62.4089 82.8229 62.0417 83.0938 61.375C83.3125 61.4583 83.474 61.526 83.5781 61.5781C83.7865 61.6875 83.9062 61.7969 83.9375 61.9062ZM87.4219 68.5547C87.0885 68.8828 86.5651 69.0469 85.8516 69.0469C85.2474 69.0469 84.5625 68.6875 83.7969 67.9688C83.599 68.1406 83.3385 68.375 83.0156 68.6719V67.1719C83.1146 67.1615 83.1641 67.1276 83.1641 67.0703C83.1641 67.0443 83.1276 66.9609 83.0547 66.8203C82.9818 66.6745 82.9453 66.5599 82.9453 66.4766C82.9453 65.7422 83.1458 65.1562 83.5469 64.7188C83.7865 64.4583 83.9818 64.3281 84.1328 64.3281C84.3776 64.3281 84.5703 64.4922 84.7109 64.8203C84.8203 65.0755 84.875 65.349 84.875 65.6406C84.875 66.1771 84.6927 66.737 84.3281 67.3203C84.5885 67.5807 85.0078 67.7109 85.5859 67.7109C86.4036 67.7109 87.0156 67.4896 87.4219 67.0469V68.5547ZM84.4688 65.8438C84.4688 65.7292 84.4115 65.6354 84.2969 65.5625C84.1875 65.4844 84.0729 65.4453 83.9531 65.4453C83.5156 65.6953 83.2969 65.9505 83.2969 66.2109C83.349 66.3464 83.4896 66.5104 83.7188 66.7031C83.8542 66.6198 84.0052 66.4896 84.1719 66.3125C84.3698 66.1042 84.4688 65.9479 84.4688 65.8438ZM90.0625 58.1641C89.8542 58.2161 89.3854 58.4245 88.6562 58.7891C87.974 59.1328 87.5807 59.3047 87.4766 59.3047C87.2995 59.3047 87.0859 59.1484 86.8359 58.8359C86.7995 58.7891 86.6224 58.5573 86.3047 58.1406H86.7656C86.8854 58.1406 87.0443 58.224 87.2422 58.3906C87.4453 58.5573 87.5625 58.6406 87.5938 58.6406C87.8438 58.6406 87.9688 58.5391 87.9688 58.3359C87.9688 57.9922 87.8021 57.7188 87.4688 57.5156H87.9453C88.0703 57.5156 88.2214 57.6276 88.3984 57.8516C88.5755 58.0703 88.6771 58.1797 88.7031 58.1797C88.9375 58.1797 89.0547 58.0547 89.0547 57.8047C89.0547 57.5339 88.9193 57.3255 88.6484 57.1797C88.9193 57.1589 89.0677 57.1484 89.0938 57.1484C89.2969 57.1484 89.474 57.2812 89.625 57.5469C89.8177 57.8906 89.9635 58.0964 90.0625 58.1641ZM89.7969 56.2734C89.6198 56.3307 89.0625 56.5781 88.125 57.0156C87.3229 57.3906 86.8047 57.5781 86.5703 57.5781H85.7891C87.6693 56.7083 88.7422 56.2734 89.0078 56.2734H89.7969ZM86.3359 61.4375C86.263 61.6927 86.2031 61.8802 86.1562 62C86.0677 62.2448 85.9818 62.4089 85.8984 62.4922C85.5286 62.2891 85.2552 62.1276 85.0781 62.0078C85.1875 61.7318 85.3203 61.3672 85.4766 60.9141C86.0078 61.0651 86.2943 61.2396 86.3359 61.4375ZM87.9531 66.6797C87.9531 67.5078 87.7057 68.1589 87.2109 68.6328V67.1641C87.4245 66.9661 87.5677 66.7135 87.6406 66.4062C87.5 65.7396 87.2552 65.276 86.9062 65.0156C86.8125 65.1406 86.7448 65.2839 86.7031 65.4453C86.6823 65.4505 86.6615 65.4531 86.6406 65.4531C86.5938 65.4531 86.5703 65.3646 86.5703 65.1875C86.5703 64.2656 86.6953 63.7005 86.9453 63.4922C87.3984 64.0391 87.6875 64.5391 87.8125 64.9922C87.9062 65.3307 87.9531 65.8932 87.9531 66.6797ZM94.6484 71.3906C94.0651 71.3906 93.612 71.0495 93.2891 70.3672C93.0339 69.8255 92.9062 69.2266 92.9062 68.5703C92.9062 66.9453 93.401 65.4089 94.3906 63.9609C94.6771 63.5495 95.1901 62.8073 95.9297 61.7344C96.0443 61.5677 96.1693 61.1641 96.3047 60.5234L96.3828 60.4766L96.4609 60.5234C96.4609 60.5547 96.4557 60.5938 96.4453 60.6406C96.3411 61.1094 96.1979 61.6224 96.0156 62.1797C95.5 62.9245 94.862 63.8698 94.1016 65.0156C94.0651 65.0729 93.9505 65.3464 93.7578 65.8359C93.4193 66.7005 93.25 67.4401 93.25 68.0547C93.25 69.2891 93.7083 69.9714 94.625 70.1016C94.6615 70.1068 94.7188 70.1094 94.7969 70.1094C95.2552 70.1094 95.7135 69.8255 96.1719 69.2578C96.6146 68.7161 96.8359 68.2083 96.8359 67.7344C96.8359 67.4896 96.7292 67.2917 96.5156 67.1406C96.3281 67.0052 96.1068 66.9375 95.8516 66.9375C95.4453 66.9375 95.1354 67.1641 94.9219 67.6172C95.3594 67.6224 95.6458 67.6927 95.7812 67.8281C95.8021 67.8906 95.8125 67.974 95.8125 68.0781C95.8125 68.3854 95.724 68.7266 95.5469 69.1016C95.2552 69.0443 94.9167 68.9557 94.5312 68.8359L94.4844 68.7188C94.4844 68.5521 94.5234 68.2188 94.6016 67.7188C94.7161 66.9844 94.8099 66.5156 94.8828 66.3125C95.0859 65.75 95.4245 65.4688 95.8984 65.4688C96.1953 65.4688 96.4766 65.6198 96.7422 65.9219C97.0807 66.3073 97.25 66.9245 97.25 67.7734L97.2031 68.0312C97.0312 68.9896 96.7969 69.7266 96.5 70.2422C96.0625 71.0078 95.4453 71.3906 94.6484 71.3906ZM100.992 77.7422C100.815 77.7995 100.258 78.0469 99.3203 78.4844C98.5182 78.8594 98 79.0469 97.7656 79.0469H96.9844C98.8646 78.1771 99.9375 77.7422 100.203 77.7422H100.992ZM100.531 64.5078C100.531 65.8411 100.427 67.026 100.219 68.0625C99.9062 69.6146 99.3932 70.6198 98.6797 71.0781C98.1484 71.4167 97.5625 71.6641 96.9219 71.8203C95.8854 72.0703 95.0547 72.1953 94.4297 72.1953C94.4141 72.1693 94.401 72.1432 94.3906 72.1172L94.3984 72.0547L94.4297 72.0234C94.6016 72.0234 95.0964 71.8516 95.9141 71.5078C96.987 71.0547 97.7786 70.5651 98.2891 70.0391C99.5755 68.7057 100.219 67.2786 100.219 65.7578C100.219 64.6224 99.599 62.8698 98.3594 60.5C98.3542 60.8854 98.375 61.4193 98.4219 62.1016C98.474 62.8568 98.5 63.3932 98.5 63.7109C98.5 64.2422 98.4349 64.526 98.3047 64.5625L98.2109 64.4453C98.2214 64.2266 98.2266 64.0911 98.2266 64.0391C98.2266 63.5859 98.1797 62.9115 98.0859 62.0156C97.9922 61.1146 97.9453 60.4375 97.9453 59.9844C97.9453 59.4583 98.0391 58.9974 98.2266 58.6016C98.2943 58.6224 98.5417 59.0651 98.9688 59.9297C99.349 60.7005 99.612 61.263 99.7578 61.6172C99.9036 61.9714 100.052 62.3828 100.203 62.8516C100.422 63.5286 100.531 64.0807 100.531 64.5078ZM99.9766 73.6328C99.9766 74.0182 99.7214 74.3411 99.2109 74.6016C98.7891 74.8151 98.3672 74.9219 97.9453 74.9219C97.8828 74.9219 97.8516 74.8854 97.8516 74.8125C97.9922 74.7604 98.2474 74.6667 98.6172 74.5312C98.987 74.401 99.2448 74.2708 99.3906 74.1406L99.4297 74.0625L99.3906 74.0078L99.1953 74.0234L98.9766 74.0078C98.8255 73.8516 98.75 73.6953 98.75 73.5391C98.75 73.2995 98.8281 73.0391 98.9844 72.7578C99.1458 72.4818 99.3359 72.3099 99.5547 72.2422L99.7422 72.2891C99.7422 72.3672 99.7214 72.4974 99.6797 72.6797C99.6276 72.8776 99.5833 72.9922 99.5469 73.0234L99.3906 72.9922C99.3125 72.9922 99.2552 73.0104 99.2188 73.0469L99.1953 73.1406C99.1953 73.2031 99.2344 73.2578 99.3125 73.3047L99.625 73.2969L99.8047 73.3047C99.9193 73.4193 99.9766 73.5286 99.9766 73.6328Z" fill="#162F43"/>
<line y1="84.5" x2="134" y2="84.5" stroke="#CB3526"/>
</svg>
