<svg width="38" height="38" viewBox="0 0 38 38" fill="none" xmlns="http://www.w3.org/2000/svg">
<path d="M1.58398 25.3332V24.4228C1.58398 22.8659 2.33607 21.8367 3.84023 21.3353C5.3444 20.8339 6.70343 20.5832 7.91732 20.5832C9.13121 20.5832 10.4902 20.8339 11.9944 21.3353C13.4986 21.8367 14.2507 22.8659 14.2507 24.4228V25.3332H1.58398ZM7.91732 18.9999C7.04648 18.9999 6.30126 18.6901 5.68165 18.0705C5.06204 17.4509 4.75171 16.7051 4.75065 15.8332C4.7496 14.9613 5.05993 14.2161 5.68165 13.5976C6.30337 12.979 7.0486 12.6687 7.91732 12.6666C8.78604 12.6645 9.53179 12.9748 10.1546 13.5976C10.7773 14.2203 11.0872 14.9656 11.084 15.8332C11.0808 16.7009 10.771 17.4467 10.1546 18.0705C9.53812 18.6943 8.79237 19.0041 7.91732 18.9999ZM15.3194 21.2562C15.0027 21.2562 14.7256 21.1374 14.4881 20.8999C14.2506 20.6624 14.1319 20.3853 14.1319 20.0687C14.1319 19.9103 14.2506 19.6332 14.4881 19.2374C14.6993 18.9735 14.8444 18.6832 14.9236 18.3666C15.0027 18.0499 15.0423 17.7332 15.0423 17.4166C15.0423 17.0999 15.0027 16.7901 14.9236 16.4872C14.8444 16.1842 14.6993 15.9003 14.4881 15.6353C14.3826 15.5034 14.2971 15.3651 14.2317 15.2205C14.1662 15.0759 14.133 14.9239 14.1319 14.7645C14.1319 14.4214 14.2443 14.138 14.4691 13.9142C14.694 13.6905 14.9774 13.578 15.3194 13.577C15.5305 13.577 15.7221 13.6366 15.8942 13.7559C16.0662 13.8752 16.2177 14.0135 16.3486 14.1707C16.6916 14.6457 16.9555 15.1603 17.1402 15.7145C17.325 16.2687 17.4173 16.836 17.4173 17.4166C17.4173 17.9971 17.325 18.5582 17.1402 19.0997C16.9555 19.6412 16.6916 20.1621 16.3486 20.6624C16.2166 20.8207 16.0652 20.9595 15.8942 21.0788C15.7232 21.1981 15.5316 21.2572 15.3194 21.2562ZM18.684 24.6603C18.3409 24.6603 18.0506 24.5484 17.8132 24.3247C17.5757 24.1009 17.4569 23.8169 17.4569 23.4728C17.4569 23.3145 17.4902 23.163 17.5567 23.0184C17.6231 22.8738 17.7087 22.735 17.8132 22.602C18.4729 21.8631 18.9679 21.045 19.2983 20.1478C19.6287 19.2506 19.7934 18.3402 19.7923 17.4166C19.7913 16.493 19.6266 15.5889 19.2983 14.7043C18.97 13.8198 18.475 13.0086 17.8132 12.2707C17.7076 12.1388 17.6221 12.0068 17.5567 11.8749C17.4912 11.743 17.458 11.5978 17.4569 11.4395C17.4569 11.0964 17.5693 10.8062 17.7941 10.5687C18.019 10.3312 18.3024 10.2124 18.6444 10.2124C18.8291 10.2124 19.0007 10.252 19.159 10.3312C19.3173 10.4103 19.4625 10.5159 19.5944 10.6478C20.4652 11.6242 21.1118 12.693 21.534 13.8541C21.9562 15.0152 22.1673 16.2027 22.1673 17.4166C22.1673 18.6305 21.9493 19.8248 21.5134 20.9997C21.0775 22.1745 20.4378 23.2496 19.5944 24.2249C19.4625 24.3568 19.3242 24.4624 19.1796 24.5416C19.035 24.6207 18.8698 24.6603 18.684 24.6603ZM23.7507 25.3332V24.4228C23.7507 22.8659 24.5027 21.8367 26.0069 21.3353C27.5111 20.8339 28.8701 20.5832 30.084 20.5832C31.2979 20.5832 32.6569 20.8339 34.1611 21.3353C35.6652 21.8367 36.4173 22.8659 36.4173 24.4228V25.3332H23.7507ZM30.084 18.9999C29.2132 18.9999 28.4679 18.6901 27.8483 18.0705C27.2287 17.4509 26.9184 16.7051 26.9173 15.8332C26.9163 14.9613 27.2266 14.2161 27.8483 13.5976C28.47 12.979 29.2153 12.6687 30.084 12.6666C30.9527 12.6645 31.6985 12.9748 32.3212 13.5976C32.944 14.2203 33.2538 14.9656 33.2506 15.8332C33.2475 16.7009 32.9377 17.4467 32.3212 18.0705C31.7048 18.6943 30.959 19.0041 30.084 18.9999Z" fill="#162F43"/>
</svg>
