<svg width="24" height="26" viewBox="0 0 24 26" fill="none" xmlns="http://www.w3.org/2000/svg">
<path d="M4.66625 24.2499C3.19375 24.2499 2 23.0249 2 21.5124V10.5099C2 9.67861 2.36875 8.89111 3 8.37236L10.3337 2.34986C10.8023 1.96184 11.3916 1.74951 12 1.74951C12.6084 1.74951 13.1977 1.96184 13.6663 2.34986L20.9987 8.37236C21.6312 8.89111 22 9.67861 22 10.5099V21.5124C22 23.0249 20.8063 24.2499 19.3338 24.2499H4.66625Z" stroke="#CB3526" stroke-width="3" stroke-linecap="round" stroke-linejoin="round"/>
<path d="M8.875 24.25V17.375C8.875 16.712 9.13839 16.0761 9.60723 15.6072C10.0761 15.1384 10.712 14.875 11.375 14.875H12.625C13.288 14.875 13.9239 15.1384 14.3928 15.6072C14.8616 16.0761 15.125 16.712 15.125 17.375V24.25" stroke="#CB3526" stroke-width="3" stroke-linecap="round" stroke-linejoin="round"/>
</svg>
