<svg width="76" height="77" viewBox="0 0 76 77" fill="none" xmlns="http://www.w3.org/2000/svg">
<g filter="url(#filter0_d_143_87)">
<path d="M66.4375 1.64039H9.5625C8.27205 1.62726 7.02908 2.12659 6.10635 3.02881C5.18362 3.93104 4.65649 5.16247 4.64062 6.45289V63.5576C4.65936 64.8461 5.18775 66.0747 6.11017 66.9746C7.03259 67.8745 8.27392 68.3723 9.5625 68.3591H66.4375C67.728 68.3694 68.9702 67.8684 69.8924 66.9656C70.8147 66.0628 71.3421 64.8316 71.3594 63.5412V6.43648C71.3364 5.14984 70.8064 3.92429 69.8848 3.0262C68.9632 2.12812 67.7243 1.6301 66.4375 1.64039Z" fill="#0076B2"/>
<path d="M14.518 26.6494H24.4219V58.5158H14.518V26.6494ZM19.4727 10.79C20.6086 10.79 21.719 11.127 22.6634 11.7582C23.6078 12.3894 24.3438 13.2865 24.7783 14.3361C25.2127 15.3856 25.3261 16.5405 25.1041 17.6545C24.8821 18.7685 24.3347 19.7917 23.5311 20.5945C22.7275 21.3973 21.7038 21.9438 20.5895 22.1647C19.4753 22.3857 18.3206 22.2712 17.2714 21.8357C16.2223 21.4003 15.3258 20.6635 14.6955 19.7184C14.0652 18.7734 13.7294 17.6627 13.7305 16.5268C13.7319 15.0048 14.3375 13.5456 15.4143 12.47C16.491 11.3943 17.9507 10.79 19.4727 10.79ZM30.6344 26.6494H40.1281V31.0244H40.2594C41.5828 28.5197 44.8094 25.8783 49.6273 25.8783C59.657 25.8564 61.5164 32.4572 61.5164 41.0158V58.5158H51.6125V43.0119C51.6125 39.3205 51.5469 34.5682 46.4664 34.5682C41.3859 34.5682 40.5219 38.5932 40.5219 42.7713V58.5158H30.6344V26.6494Z" fill="white"/>
</g>
<defs>
<filter id="filter0_d_143_87" x="-1" y="0" width="78" height="78" filterUnits="userSpaceOnUse" color-interpolation-filters="sRGB">
<feFlood flood-opacity="0" result="BackgroundImageFix"/>
<feColorMatrix in="SourceAlpha" type="matrix" values="0 0 0 0 0 0 0 0 0 0 0 0 0 0 0 0 0 0 127 0" result="hardAlpha"/>
<feOffset dy="4"/>
<feGaussianBlur stdDeviation="2"/>
<feComposite in2="hardAlpha" operator="out"/>
<feColorMatrix type="matrix" values="0 0 0 0 0 0 0 0 0 0 0 0 0 0 0 0 0 0 0.25 0"/>
<feBlend mode="normal" in2="BackgroundImageFix" result="effect1_dropShadow_143_87"/>
<feBlend mode="normal" in="SourceGraphic" in2="effect1_dropShadow_143_87" result="shape"/>
</filter>
</defs>
</svg>
