<svg width="25" height="24" viewBox="0 0 25 24" fill="none" xmlns="http://www.w3.org/2000/svg">
<path fill-rule="evenodd" clip-rule="evenodd" d="M14.4917 0.803755C14.3918 0.970883 14.3488 1.1659 14.3692 1.35955C14.3895 1.5532 14.4721 1.73503 14.6045 1.87775C16.1382 3.52802 16.972 5.70872 16.9308 7.96119C16.8895 10.2137 15.9764 12.3624 14.3834 13.9554C12.7904 15.5484 10.6417 16.4615 8.38918 16.5028C6.13671 16.544 3.95601 15.7102 2.30575 14.1766C2.16296 14.0438 1.98094 13.961 1.78706 13.9407C1.59318 13.9203 1.39792 13.9634 1.23066 14.0635C1.06339 14.1637 0.93317 14.3154 0.859571 14.4959C0.785972 14.6765 0.772979 14.876 0.822546 15.0646C2.17855 20.2078 6.85855 23.9998 12.4265 23.9998C19.0541 23.9998 24.4265 18.6274 24.4265 11.9998C24.4265 6.43176 20.6345 1.75055 15.4925 0.395754C15.304 0.346228 15.1046 0.35923 14.9241 0.432806C14.7436 0.506381 14.5919 0.636555 14.4917 0.803755ZM17.7053 3.26975C19.0282 4.07083 20.1515 5.16221 20.9904 6.46135C21.8293 7.7605 22.3619 9.23339 22.5477 10.7686C22.7336 12.3039 22.568 13.8613 22.0633 15.3231C21.5587 16.7849 20.7282 18.1129 19.6348 19.2065C18.5414 20.3001 17.2136 21.1308 15.7519 21.6357C14.2901 22.1406 12.7328 22.3065 11.1975 22.1209C9.66218 21.9353 8.1892 21.403 6.88991 20.5643C5.59062 19.7256 4.49905 18.6024 3.69775 17.2798C5.65844 18.2191 7.86232 18.5268 10.0053 18.1604C12.1483 17.794 14.1248 16.7716 15.662 15.2342C17.1993 13.6968 18.2215 11.7203 18.5877 9.57725C18.9539 7.43422 18.6448 5.23037 17.7053 3.26975Z" fill="#162F43"/>
</svg>
