<svg width="26" height="26" viewBox="0 0 26 26" fill="none" xmlns="http://www.w3.org/2000/svg">
<path d="M17.1396 21.661C17.2143 21.9912 17.2217 22.3331 17.1615 22.6662C17.1012 22.9994 16.9746 23.317 16.789 23.6001C16.6035 23.8833 16.3629 24.1262 16.0815 24.3144C15.8001 24.5026 15.4837 24.6323 15.1511 24.6957C14.8186 24.7591 14.4767 24.7549 14.1458 24.6833C13.8149 24.6118 13.5018 24.4744 13.2251 24.2794C12.9484 24.0843 12.7138 23.8356 12.5353 23.5479C12.3567 23.2603 12.2379 22.9397 12.1859 22.6052C12.0781 21.9555 12.2288 21.2893 12.6056 20.7492C12.9824 20.209 13.5555 19.8376 14.2025 19.7143C14.8494 19.591 15.519 19.7255 16.0681 20.0892C16.6171 20.4529 17.0022 21.017 17.141 21.6608M23.0124 17.8001C23.0834 18.129 23.0879 18.4687 23.0257 18.7993C22.9635 19.1299 22.8358 19.4447 22.6501 19.7253C22.4644 20.0058 22.2244 20.2463 21.9444 20.4327C21.6644 20.6192 21.3499 20.7477 21.0194 20.8108C20.689 20.8739 20.3492 20.8702 20.0202 20.8001C19.6912 20.7299 19.3795 20.5947 19.1035 20.4023C18.8276 20.2099 18.5929 19.9642 18.4132 19.6798C18.2336 19.3954 18.1126 19.0779 18.0575 18.746C17.9321 18.0887 18.0728 17.4086 18.4489 16.8551C18.8249 16.3016 19.4054 15.9202 20.0626 15.7948C20.7199 15.6693 21.4 15.8101 21.9535 16.1861C22.507 16.5621 22.8884 17.1426 23.0139 17.7999M20.5932 5.08701C20.6642 5.41585 20.6687 5.75557 20.6065 6.08618C20.5443 6.4168 20.4165 6.73162 20.2308 7.01214C20.0451 7.29266 19.8052 7.53321 19.5252 7.71963C19.2451 7.90606 18.9306 8.03459 18.6002 8.09767C18.2697 8.16075 17.93 8.1571 17.601 8.08695C17.272 8.01679 16.9603 7.88154 16.6843 7.68915C16.4083 7.49676 16.1736 7.25112 15.994 6.96668C15.8144 6.68223 15.6934 6.36474 15.6383 6.03287C15.5128 5.37562 15.6536 4.69544 16.0296 4.14198C16.4057 3.58852 16.9862 3.2071 17.6434 3.08164C18.3007 2.95617 18.9808 3.09694 19.5343 3.47297C20.0878 3.849 20.4692 4.42949 20.5946 5.08674M13.7099 3.66093C13.7809 3.98977 13.7854 4.32949 13.7231 4.6601C13.6609 4.99071 13.5332 5.30554 13.3475 5.58606C13.1618 5.86658 12.9219 6.10713 12.6418 6.29355C12.3618 6.47997 12.0473 6.60851 11.7168 6.67159C11.3864 6.73467 11.0467 6.73102 10.7176 6.66086C10.3886 6.59071 10.0769 6.45545 9.80097 6.26306C9.525 6.07067 9.29028 5.82503 9.11065 5.54059C8.93101 5.25615 8.81007 4.93866 8.75495 4.60678C8.64704 3.95707 8.79748 3.29091 9.17412 2.75062C9.55077 2.21033 10.1238 1.83874 10.7707 1.71525C11.4176 1.59175 12.0872 1.72614 12.6364 2.08969C13.1856 2.45325 13.5708 3.01715 13.7099 3.66093ZM7.86481 7.48836C7.93572 7.81722 7.94015 8.15694 7.87782 8.48753C7.8155 8.81813 7.68768 9.13292 7.5019 9.41339C7.31612 9.69386 7.07612 9.93434 6.79602 10.1207C6.51593 10.307 6.20139 10.4355 5.87092 10.4985C5.54045 10.5614 5.20072 10.5577 4.87172 10.4874C4.54272 10.4172 4.23109 10.2818 3.95517 10.0894C3.67925 9.8969 3.44461 9.65119 3.26506 9.36669C3.0855 9.0822 2.96466 8.76467 2.90963 8.43278C2.80191 7.78303 2.95255 7.11692 3.32935 6.57674C3.70616 6.03656 4.27926 5.66515 4.92623 5.54184C5.5732 5.41853 6.24274 5.55311 6.79182 5.91682C7.3409 6.28053 7.72599 6.84454 7.86481 7.48836ZM6.45394 14.3658C6.52859 14.696 6.53602 15.0379 6.47579 15.371C6.41556 15.7042 6.28891 16.0218 6.10336 16.3049C5.91782 16.5881 5.67719 16.831 5.3958 17.0192C5.11441 17.2074 4.79802 17.3371 4.46547 17.4005C4.13293 17.4639 3.79102 17.4597 3.46013 17.3881C3.12924 17.3166 2.81612 17.1792 2.53944 16.9842C2.26275 16.7891 2.02815 16.5404 1.84961 16.2527C1.67106 15.9651 1.55224 15.6445 1.5002 15.31C1.39962 14.6635 1.55413 14.0032 1.93111 13.4685C2.3081 12.9337 2.87808 12.5664 3.52078 12.4439C4.16348 12.3214 4.82863 12.4533 5.37588 12.8119C5.92313 13.1705 6.30967 13.7277 6.45394 14.3658ZM10.2606 20.2267C10.3354 20.5569 10.3429 20.8987 10.2828 21.2319C10.2226 21.565 10.0961 21.8827 9.91061 22.1659C9.72515 22.4491 9.48458 22.6921 9.20325 22.8804C8.92192 23.0687 8.60556 23.1984 8.27304 23.2619C7.94051 23.3254 7.5986 23.3213 7.26769 23.2499C6.93678 23.1784 6.62363 23.0412 6.34688 22.8462C6.07014 22.6512 5.83546 22.4025 5.65684 22.1149C5.47822 21.8274 5.35929 21.5068 5.30716 21.1723C5.19924 20.5226 5.34968 19.8564 5.72633 19.3161C6.10298 18.7758 6.67598 18.4043 7.32291 18.2808C7.96985 18.1573 8.63943 18.2916 9.18862 18.6552C9.73781 19.0188 10.1216 19.5829 10.2606 20.2267ZM24.4348 10.9442C24.5094 11.2744 24.5167 11.6163 24.4564 11.9494C24.3961 12.2825 24.2693 12.6001 24.0837 12.8832C23.8981 13.1663 23.6574 13.4091 23.3759 13.5973C23.0945 13.7854 22.778 13.915 22.4455 13.9783C22.1129 14.0415 21.771 14.0373 21.4401 13.9656C21.1093 13.894 20.7962 13.7566 20.5196 13.5614C20.2429 13.3663 20.0084 13.1175 19.8299 12.8298C19.6515 12.5421 19.5327 12.2214 19.4808 11.8869C19.3804 11.2404 19.5351 10.5802 19.9123 10.0455C20.2894 9.5109 20.8595 9.14369 21.5022 9.02138C22.1449 8.89907 22.8101 9.03123 23.3572 9.38998C23.9043 9.74873 24.2907 10.306 24.4348 10.9442Z" stroke="#E7E0D0" stroke-width="1.5" stroke-linecap="round" stroke-linejoin="round"/>
</svg>
