<svg width="30" height="30" viewBox="0 0 30 30" fill="none" xmlns="http://www.w3.org/2000/svg">
<path fill-rule="evenodd" clip-rule="evenodd" d="M15 10.3125C13.7568 10.3125 12.5645 10.8064 11.6854 11.6854C10.8064 12.5645 10.3125 13.7568 10.3125 15C10.3125 16.2432 10.8064 17.4355 11.6854 18.3146C12.5645 19.1936 13.7568 19.6875 15 19.6875C16.2432 19.6875 17.4355 19.1936 18.3146 18.3146C19.1936 17.4355 19.6875 16.2432 19.6875 15C19.6875 13.7568 19.1936 12.5645 18.3146 11.6854C17.4355 10.8064 16.2432 10.3125 15 10.3125ZM12.1875 15C12.1875 14.2541 12.4838 13.5387 13.0113 13.0113C13.5387 12.4838 14.2541 12.1875 15 12.1875C15.7459 12.1875 16.4613 12.4838 16.9887 13.0113C17.5162 13.5387 17.8125 14.2541 17.8125 15C17.8125 15.7459 17.5162 16.4613 16.9887 16.9887C16.4613 17.5162 15.7459 17.8125 15 17.8125C14.2541 17.8125 13.5387 17.5162 13.0113 16.9887C12.4838 16.4613 12.1875 15.7459 12.1875 15Z" fill="#E7E0D0"/>
<path fill-rule="evenodd" clip-rule="evenodd" d="M14.9692 1.5625C14.413 1.5625 13.9492 1.5625 13.5692 1.5875C13.1807 1.60315 12.7976 1.68341 12.4355 1.825C12.0183 1.99761 11.6392 2.25072 11.3198 2.56986C11.0005 2.889 10.7471 3.26793 10.5742 3.685C10.393 4.1225 10.3442 4.585 10.3242 5.0875C10.322 5.27123 10.2732 5.4514 10.1825 5.61118C10.0918 5.77097 9.96207 5.90517 9.80545 6.00125C9.64398 6.08915 9.46286 6.13468 9.27902 6.13359C9.09518 6.1325 8.91461 6.08482 8.7542 5.995C8.3092 5.76 7.8842 5.57125 7.4142 5.50875C6.96663 5.44988 6.51185 5.47974 6.07582 5.59663C5.63979 5.71352 5.23106 5.91515 4.87295 6.19C4.56969 6.4331 4.30904 6.72501 4.1017 7.05375C3.8892 7.37125 3.6567 7.7725 3.3792 8.25375L3.34795 8.30875C3.0692 8.79 2.83795 9.19125 2.67045 9.53375C2.49545 9.89125 2.35795 10.2437 2.30795 10.6337C2.1887 11.5375 2.4333 12.4516 2.98795 13.175C3.2767 13.5512 3.65295 13.825 4.07795 14.0925C4.23624 14.1864 4.36813 14.3188 4.46126 14.4776C4.55439 14.6363 4.60572 14.816 4.61045 15C4.60572 15.184 4.55439 15.3637 4.46126 15.5224C4.36813 15.6812 4.23624 15.8136 4.07795 15.9075C3.65295 16.175 3.27795 16.4488 2.98795 16.825C2.7131 17.1831 2.51147 17.5918 2.39458 18.0279C2.27769 18.4639 2.24783 18.9187 2.3067 19.3662C2.35795 19.7563 2.4942 20.1087 2.6692 20.4662C2.83795 20.8087 3.0692 21.21 3.34795 21.6912L3.3792 21.7463C3.6567 22.2275 3.8892 22.6287 4.1017 22.9463C4.32295 23.275 4.56045 23.5713 4.87295 23.8088C5.23096 24.0838 5.63966 24.2857 6.07569 24.4028C6.51172 24.5199 6.96655 24.5499 7.4142 24.4913C7.8842 24.4288 8.3092 24.2413 8.7542 24.005C8.91446 23.9154 9.0948 23.8678 9.2784 23.8668C9.462 23.8657 9.64289 23.9111 9.8042 23.9987C9.96209 24.0936 10.093 24.2275 10.1842 24.3875C10.2755 24.5475 10.3241 24.7283 10.3255 24.9125C10.3442 25.415 10.393 25.8775 10.5755 26.315C10.7481 26.7322 11.0012 27.1113 11.3203 27.4306C11.6395 27.75 12.0184 28.0034 12.4355 28.1763C12.798 28.3263 13.173 28.385 13.5692 28.4113C13.9492 28.4375 14.413 28.4375 14.9692 28.4375H15.0317C15.588 28.4375 16.0517 28.4375 16.4317 28.4125C16.8292 28.385 17.203 28.3263 17.5655 28.175C17.9826 28.0024 18.3617 27.7493 18.6811 27.4301C19.0005 27.111 19.2538 26.7321 19.4267 26.315C19.608 25.8775 19.6567 25.415 19.6767 24.9125C19.6787 24.7286 19.7274 24.5481 19.8181 24.3881C19.9088 24.2281 20.0387 24.0937 20.1955 23.9975C20.357 23.9098 20.5382 23.8645 20.722 23.8658C20.9059 23.8671 21.0864 23.915 21.2467 24.005C21.6917 24.24 22.1167 24.4287 22.5867 24.49C23.4904 24.6092 24.4045 24.3647 25.128 23.81C25.4405 23.57 25.678 23.275 25.8992 22.9463C26.1117 22.6287 26.3442 22.2275 26.6217 21.7463L26.653 21.6912C26.9317 21.21 27.163 20.8087 27.3305 20.4662C27.5055 20.1087 27.643 19.755 27.693 19.3662C27.8122 18.4625 27.5676 17.5484 27.013 16.825C26.7242 16.4488 26.348 16.175 25.923 15.9075C25.7647 15.8136 25.6328 15.6812 25.5396 15.5224C25.4465 15.3637 25.3952 15.184 25.3905 15C25.3905 14.6525 25.5805 14.3075 25.923 14.0925C26.348 13.825 26.723 13.5512 27.013 13.175C27.2878 12.8169 27.4894 12.4082 27.6063 11.9721C27.7232 11.5361 27.7531 11.0813 27.6942 10.6337C27.6353 10.2495 27.5128 9.87774 27.3317 9.53375C27.1182 9.11847 26.8919 8.70994 26.653 8.30875L26.6217 8.25375C26.3934 7.84635 26.1524 7.44616 25.8992 7.05375C25.6917 6.72545 25.4311 6.43397 25.128 6.19125C24.7699 5.91618 24.3612 5.71432 23.9252 5.59722C23.4892 5.48012 23.0344 5.45005 22.5867 5.50875C22.1167 5.57125 21.6917 5.75875 21.2467 5.995C21.0864 6.08459 20.9061 6.13215 20.7225 6.13325C20.5389 6.13434 20.358 6.08893 20.1967 6.00125C20.0396 5.90547 19.9094 5.7714 19.8182 5.6116C19.7271 5.45179 19.6779 5.27146 19.6755 5.0875C19.6567 4.585 19.608 4.1225 19.4255 3.685C19.2528 3.26781 18.9997 2.88871 18.6806 2.56936C18.3615 2.25 17.9825 1.99664 17.5655 1.82375C17.203 1.67375 16.828 1.615 16.4317 1.58875C16.0517 1.5625 15.588 1.5625 15.0317 1.5625H14.9692ZM13.153 3.55625C13.2492 3.51625 13.3955 3.48 13.6967 3.45875C14.0055 3.4375 14.4055 3.4375 15.0005 3.4375C15.5955 3.4375 15.9955 3.4375 16.3042 3.45875C16.6055 3.48 16.7517 3.51625 16.848 3.55625C17.2317 3.715 17.5355 4.01875 17.6942 4.4025C17.7442 4.5225 17.7855 4.71125 17.8017 5.1575C17.8392 6.1475 18.3505 7.10125 19.258 7.625C20.1655 8.14875 21.2467 8.115 22.123 7.6525C22.518 7.44375 22.7017 7.385 22.8317 7.36875C23.2424 7.31448 23.6579 7.42554 23.9867 7.6775C24.0692 7.74125 24.1742 7.85 24.343 8.1C24.5167 8.3575 24.7167 8.70375 25.0142 9.21875C25.3117 9.73375 25.5105 10.0812 25.6467 10.3587C25.7805 10.63 25.8217 10.775 25.8342 10.8787C25.8885 11.2895 25.7774 11.7049 25.5255 12.0337C25.4455 12.1375 25.303 12.2675 24.9255 12.505C24.0855 13.0325 23.5155 13.9525 23.5155 15C23.5155 16.0475 24.0855 16.9675 24.9255 17.495C25.303 17.7325 25.4455 17.8625 25.5255 17.9662C25.778 18.295 25.888 18.71 25.8342 19.1213C25.8217 19.225 25.7792 19.3713 25.6467 19.6413C25.5105 19.92 25.3117 20.2663 25.0142 20.7812C24.7167 21.2962 24.5155 21.6425 24.343 21.9C24.1742 22.15 24.0692 22.2587 23.9867 22.3225C23.6579 22.5745 23.2424 22.6855 22.8317 22.6312C22.7017 22.615 22.5192 22.5562 22.123 22.3475C21.248 21.885 20.1655 21.85 19.258 22.3738C18.3505 22.8975 17.8392 23.8525 17.8017 24.8425C17.7855 25.2888 17.7442 25.4775 17.6942 25.5975C17.6157 25.7872 17.5005 25.9597 17.3553 26.1049C17.2101 26.2501 17.0377 26.3652 16.848 26.4438C16.7517 26.4838 16.6055 26.52 16.3042 26.5413C15.9955 26.5625 15.5955 26.5625 15.0005 26.5625C14.4055 26.5625 14.0055 26.5625 13.6967 26.5413C13.3955 26.52 13.2492 26.4838 13.153 26.4438C12.9632 26.3652 12.7908 26.2501 12.6456 26.1049C12.5004 25.9597 12.3852 25.7872 12.3067 25.5975C12.2567 25.4775 12.2155 25.2888 12.1992 24.8425C12.1617 23.8525 11.6505 22.8988 10.743 22.375C9.83545 21.8512 8.7542 21.885 7.87795 22.3475C7.48295 22.5562 7.2992 22.615 7.1692 22.6312C6.75849 22.6855 6.34305 22.5745 6.0142 22.3225C5.9317 22.2587 5.8267 22.15 5.65795 21.9C5.4228 21.534 5.19895 21.1609 4.9867 20.7812C4.6892 20.2663 4.49045 19.9188 4.3542 19.6413C4.22045 19.37 4.1792 19.225 4.1667 19.1213C4.11243 18.7105 4.22349 18.2951 4.47545 17.9662C4.55545 17.8625 4.69795 17.7325 5.07545 17.495C5.91545 16.9675 6.48545 16.0475 6.48545 15C6.48545 13.9525 5.91545 13.0325 5.07545 12.505C4.69795 12.2675 4.55545 12.1375 4.47545 12.0337C4.22349 11.7049 4.11243 11.2895 4.1667 10.8787C4.1792 10.775 4.2217 10.6287 4.3542 10.3587C4.49045 10.08 4.6892 9.73375 4.9867 9.21875C5.2842 8.70375 5.48545 8.3575 5.65795 8.1C5.8267 7.85 5.9317 7.74125 6.0142 7.6775C6.34305 7.42554 6.75849 7.31448 7.1692 7.36875C7.2992 7.385 7.4817 7.44375 7.87795 7.6525C8.75295 8.115 9.83545 8.15 10.743 7.625C11.6505 7.10125 12.1617 6.1475 12.1992 5.1575C12.2155 4.71125 12.2567 4.5225 12.3067 4.4025C12.4655 4.01875 12.7692 3.715 13.153 3.55625Z" fill="#E7E0D0"/>
</svg>
